<svg xmlns="http://www.w3.org/2000/svg" viewBox="0 0 64 64">
	<path d="M 64 32 C 64 49.673 49.673 64 32 64 C 14.327 64 0 49.673 0 32 C 0 14.327 14.327 0 32 0 C 49.673 0 64 14.327 64 32 Z M 32 8 C 18.745 8 8 18.745 8 32 C 8 45.255 18.745 56 32 56 C 45.255 56 56 45.255 56 32 C 56 18.745 45.255 8 32 8 Z M 48 32 C 48 40.837 40.837 48 32 48 C 23.163 48 16 40.837 16 32 C 16 23.163 23.163 16 32 16 C 40.837 16 48 23.163 48 32 Z M 32 24 C 27.582 24 24 27.582 24 32 C 24 36.418 27.582 40 32 40 C 36.418 40 40 36.418 40 32 C 40 27.582 36.418 24 32 24 Z"/>
	<style>
		@media (prefers-color-scheme: dark) {
			path { fill: #ffffff; }
		}
	</style>
</svg>
